<svg width="450px" height="480px" viewBox="0 0 264 280" version="1.1" xmlns="http://www.w3.org/2000/svg" xmlns:xlink="http://www.w3.org/1999/xlink"><desc>Avatar Creator</desc><defs><circle id="path-1" cx="120" cy="120" r="120"></circle><path d="M12,160 C12,226.27417 65.72583,280 132,280 C198.27417,280 252,226.27417 252,160 L264,160 L264,-1.42108547e-14 L-3.19744231e-14,-1.42108547e-14 L-3.19744231e-14,160 L12,160 Z" id="path-3"></path><path d="M124,144.610951 L124,163 L128,163 L128,163 C167.764502,163 200,195.235498 200,235 L200,244 L0,244 L0,235 C-4.86974701e-15,195.235498 32.235498,163 72,163 L72,163 L76,163 L76,144.610951 C58.7626345,136.422372 46.3722246,119.687011 44.3051388,99.8812385 C38.4803105,99.0577866 34,94.0521096 34,88 L34,74 C34,68.0540074 38.3245733,63.1180731 44,62.1659169 L44,56 L44,56 C44,25.072054 69.072054,5.68137151e-15 100,0 L100,0 L100,0 C130.927946,-5.68137151e-15 156,25.072054 156,56 L156,62.1659169 C161.675427,63.1180731 166,68.0540074 166,74 L166,88 C166,94.0521096 161.51969,99.0577866 155.694861,99.8812385 C153.627775,119.687011 141.237365,136.422372 124,144.610951 Z" id="path-5"></path></defs><g id="avatarmaker" stroke="none" stroke-width="1" fill="none" fill-rule="evenodd"><g transform="translate(-825.000000, -1100.000000)" id="avatarmaker/Circle"><g transform="translate(825.000000, 1100.000000)"><g id="Mask"></g><g id="avatarmaker" stroke-width="1" fill-rule="evenodd" mask="url(#mask-4)"><g id="Body" transform="translate(32.000000, 36.000000)"><mask id="mask-6" fill="white"><use xlink:href="#path-5"></use></mask><use fill="#D0C6AC" xlink:href="#path-5"></use><g id="Skin/ðŸ‘¶ðŸ½-03-Brown" mask="url(#mask-6)" fill="#D08B5B"><g transform="translate(-32.000000, 0.000000)" id="Color"><rect x="0" y="0" width="264" height="244"></rect></g></g><path d="M156,79 L156,102 C156,132.927946 130.927946,158 100,158 C69.072054,158 44,132.927946 44,102 L44,79 L44,94 C44,124.927946 69.072054,150 100,150 C130.927946,150 156,124.927946 156,94 L156,79 Z" id="Neck-Shadow" fill-opacity="0.100000001" fill="#000000" mask="url(#mask-6)"></path></g><g id="Clothing/Shirt-Crew-Neck" transform="translate(0.000000, 170.000000)"><defs><path d="M165.960472,29.2949161 C202.936473,32.3249982 232,63.2942856 232,101.051724 L232,110 L32,110 L32,101.051724 C32,62.9525631 61.591985,31.7649812 99.0454063,29.2195264 C99.0152598,29.5931145 99,29.9692272 99,30.3476251 C99,42.2107177 113.998461,51.8276544 132.5,51.8276544 C151.001539,51.8276544 166,42.2107177 166,30.3476251 C166,29.9946691 165.986723,29.6437014 165.960472,29.2949161 Z" id="react-path-393"></path></defs><mask id="react-mask-394" fill="white"><use xlink:href="#react-path-393"></use></mask><use id="Clothes" fill="#E6E6E6" fill-rule="evenodd" xlink:href="#react-path-393"></use><g id="Color/Palette/Gray-01" mask="url(#react-mask-394)" fill-rule="evenodd" fill="#49d5b6"><rect id="ðŸ–Color" x="0" y="0" width="264" height="110"></rect></g><g id="Shadowy" opacity="0.599999964" stroke-width="1" fill-rule="evenodd" mask="url(#react-mask-394)" fill-opacity="0.16" fill="#000000"><g transform="translate(92.000000, 4.000000)" id="Hola-ðŸ‘‹ðŸ¼"><ellipse cx="40.5" cy="27.8476251" rx="39.6351047" ry="26.9138272"></ellipse></g></g></g><g id="Face" transform="translate(76.000000, 82.000000)" fill="#000000"><g id="Mouth/Vomit" transform="translate(2.000000, 52.000000)"><defs><path d="M34.0082051,12.6020819 C35.1280248,23.0929366 38.2345159,31.9944054 53.9961505,31.9999974 C69.757785,32.0055894 72.9169073,23.0424631 73.9942614,12.5047938 C74.0809675,11.6567158 73.1738581,10.9999965 72.0369872,10.9999965 C65.3505138,10.9999965 62.6703194,12.4951994 53.9894323,12.4999966 C45.3085452,12.5047938 40.7567994,10.9999965 36.0924943,10.9999965 C34.9490269,10.9999965 33.8961688,11.5524868 34.0082051,12.6020819 Z" id="react-path-395"></path><path d="M59.9170416,36 L60,36 C60,39.3137085 62.6862915,42 66,42 C69.3137085,42 72,39.3137085 72,36 L72,35 L72,31 C72,27.6862915 69.3137085,25 66,25 L66,25 L42,25 L42,25 C38.6862915,25 36,27.6862915 36,31 L36,31 L36,35 L36,38 C36,41.3137085 38.6862915,44 42,44 C45.3137085,44 48,41.3137085 48,38 L48,36 L48.0829584,36 C48.5590365,33.1622867 51.0270037,31 54,31 C56.9729963,31 59.4409635,33.1622867 59.9170416,36 Z" id="react-path-396"></path><filter x="-1.4%" y="-2.6%" width="102.8%" height="105.3%" filterUnits="objectBoundingBox" id="react-filter-398"><feOffset dx="0" dy="-1" in="SourceAlpha" result="shadowOffsetInner1"></feOffset><feComposite in="shadowOffsetInner1" in2="SourceAlpha" operator="arithmetic" k2="-1" k3="1" result="shadowInnerInner1"></feComposite><feColorMatrix values="0 0 0 0 0   0 0 0 0 0   0 0 0 0 0  0 0 0 0.1 0" type="matrix" in="shadowInnerInner1"></feColorMatrix></filter></defs><mask id="react-mask-397" fill="white"><use xlink:href="#react-path-395" transform="translate(54.000000, 21.499998) scale(1, -1) translate(-54.000000, -21.499998) "></use></mask><use id="Mouth" fill-opacity="0.699999988" fill="#000000" fill-rule="evenodd" transform="translate(54.000000, 21.499998) scale(1, -1) translate(-54.000000, -21.499998) " xlink:href="#react-path-395"></use><rect id="Teeth" fill="#FFFFFF" fill-rule="evenodd" mask="url(#react-mask-397)" x="39" y="0" width="31" height="16" rx="5"></rect><g id="Vomit-Stuff"><use fill="#88C553" fill-rule="evenodd" xlink:href="#react-path-396"></use><use fill="black" fill-opacity="1" filter="url(#react-filter-398)" xlink:href="#react-path-396"></use></g></g><g id="Nose/Default" transform="translate(28.000000, 40.000000)" fill-opacity="0.16"><path d="M16,8 C16,12.418278 21.372583,16 28,16 L28,16 C34.627417,16 40,12.418278 40,8" id="Nose"></path></g><g id="Eyes/Eye-Roll-ðŸ™„" transform="translate(0.000000, 8.000000)"><circle id="Eyeball" fill="#FFFFFF" cx="30" cy="22" r="14"></circle><circle id="The-white-stuff" fill="#FFFFFF" cx="82" cy="22" r="14"></circle><circle id="Eye" fill-opacity="0.699999988" fill="#000000" cx="30" cy="14" r="6"></circle><circle id="Eye" fill-opacity="0.699999988" fill="#000000" cx="82" cy="14" r="6"></circle></g><g id="Eyebrow/Natural/Unibrow-Natural" fill-opacity="0.599999964"><path d="M57.000525,12 C56.999825,11.9961 56.999825,11.9961 57.000525,12 M59.4596631,14.892451 C61.3120123,16.058698 64.1131185,16.7894891 65.7030886,17.0505179 C71.9486685,18.0766191 78.0153663,15.945512 84.1715051,15.0153209 C89.636055,14.1895424 95.8563653,13.4967455 100.86041,16.507708 C100.987756,16.584232 101.997542,17.2147893 102.524546,17.7511372 C102.91024,18.1443003 103.563259,18.0619945 103.822605,17.5722412 C105.241692,14.8939029 97.7243204,8.76008291 96.2812935,8.14993193 C89.7471082,5.39200867 81.0899445,8.32440654 74.4284137,9.38927986 C70.6888462,9.98718701 66.9279989,10.3803501 63.2409655,11.2908151 C61.9188284,11.6171635 60.6278928,12.2066818 59.3382119,12.3724317 C59.1848981,12.1429782 58.9889964,12 58.7633758,12 C57.5922879,12 55.8451696,15.4574504 58.0750241,15.6547468 C58.7728345,15.7164887 59.215997,15.3816732 59.4596631,14.892451 Z" id="Kahlo" transform="translate(80.500000, 12.500000) rotate(-2.000000) translate(-80.500000, -12.500000) "></path><path d="M54.999475,12 C55.000175,11.9961 55.000175,11.9961 54.999475,12 M15.7187065,8.14993193 C22.2528918,5.39200867 30.9100555,8.32440654 37.5715863,9.38927986 C41.3111538,9.98718701 45.0720011,10.3803501 48.7590345,11.2908151 C50.2416282,11.6567696 51.6849876,12.3536477 53.1313394,12.4128263 C53.8325707,12.4413952 54.2674737,13.2763566 53.8149484,13.8242681 C52.3320222,15.6179895 48.3271239,16.7172136 46.2969114,17.0505179 C40.0513315,18.0766191 33.9846337,15.945512 27.8284949,15.0153209 C22.363945,14.1895424 16.1436347,13.4967455 11.1395899,16.507708 C11.0122444,16.584232 10.0024581,17.2147893 9.47545402,17.7511372 C9.0897602,18.1443003 8.43674067,18.0619945 8.17739482,17.5722412 C6.75830756,14.8939029 14.2756796,8.76008291 15.7187065,8.14993193 Z M54.9339874,11 C56.1050753,11 57.8521936,15.4015737 55.6223391,15.6527457 C53.3924847,15.9039176 53.7628995,11 54.9339874,11 Z" id="Frida" transform="translate(32.348682, 12.500000) rotate(2.000000) translate(-32.348682, -12.500000) "></path></g></g><g id="Top"><defs><rect id="react-path-404" x="0" y="0" width="264" height="280"></rect><path d="M120,54 L20,54 L20,155 C20,160.522847 15.5228475,165 10,165 C4.4771525,165 6.76353751e-16,160.522847 0,155 L0,54 L0,44 C-2.9759565e-15,19.699471 19.699471,4.46393476e-15 44,0 L96,0 C120.300529,-4.46393476e-15 140,19.699471 140,44 L140,54 L140,155 C140,160.522847 135.522847,165 130,165 C124.477153,165 120,160.522847 120,155 L120,54 Z" id="react-path-402"></path><filter x="-0.8%" y="-2.8%" width="101.7%" height="111.1%" filterUnits="objectBoundingBox" id="react-filter-399"><feOffset dx="0" dy="2" in="SourceAlpha" result="shadowOffsetOuter1"></feOffset><feColorMatrix values="0 0 0 0 0   0 0 0 0 0   0 0 0 0 0  0 0 0 0.1 0" type="matrix" in="shadowOffsetOuter1"></feColorMatrix></filter><rect id="react-path-403" x="74" y="50" width="118" height="36" rx="8"></rect></defs><mask id="react-mask-400" fill="white"><use xlink:href="#react-path-404"></use></mask><g id="Mask"></g><g id="Top/Accessories/Winter-Hat-1" transform="translate(-1.000000, 0.000000)"><g id="hat" stroke-width="1" fill-rule="evenodd" transform="translate(63.000000, 20.000000)"><path d="M1,48 L23.6714286,48 L23.6714286,153.664286 C23.6714286,159.924828 18.5962564,165 12.3357143,165 C6.07517216,165 1,159.924828 1,153.664286 L1,48 Z M116.328571,48 L139,48 L139,153.664286 C139,159.924828 133.924828,165 127.664286,165 C121.403744,165 116.328571,159.924828 116.328571,153.664286 L116.328571,48 Z" id="inside" fill="#F4F4F4"></path><mask id="react-mask-401" fill="white"><use xlink:href="#react-path-402"></use></mask><use id="hat-mask" fill="#D8D8D8" xlink:href="#react-path-402"></use><g id="Color/Palette/Gray-01" mask="url(#react-mask-401)" fill-rule="evenodd" fill="#5199e4"><rect id="ðŸ–Color" x="0" y="0" width="264" height="280"></rect></g></g><g id="hat-front"><use fill="black" fill-opacity="1" filter="url(#react-path-403)" xlink:href="#react-path-403"></use><use fill="#F4F4F4" fill-rule="evenodd" xlink:href="#react-path-403"></use></g><g id="Top/_Resources/Kurt" fill="none" transform="translate(62.000000, 85.000000)" stroke-width="1"><defs><filter x="-0.8%" y="-2.0%" width="101.5%" height="108.0%" filterUnits="objectBoundingBox" id="react-filter-405"><feOffset dx="0" dy="2" in="SourceAlpha" result="shadowOffsetOuter1"></feOffset><feColorMatrix values="0 0 0 0 0   0 0 0 0 0   0 0 0 0 0  0 0 0 0.16 0" type="matrix" in="shadowOffsetOuter1" result="shadowMatrixOuter1"></feColorMatrix><feMerge><feMergeNode in="shadowMatrixOuter1"></feMergeNode><feMergeNode in="SourceGraphic"></feMergeNode></feMerge></filter></defs><g id="Kurts" filter="url(#react-filter-405)" transform="translate(5.000000, 2.000000)"><path d="M66,11.1111111 C54.9625586,11.1111111 53.3705645,2.0266011 30.6705882,0.740740741 C7.98552275,-0.283199952 0.815225204,6.4494855 0.776470588,11.1111111 C0.813236892,15.4042795 -0.352293566,26.5612661 14.3647059,39.6296296 C29.1367705,55.1420807 44.2704162,49.8818301 49.6941176,44.8148148 C55.1352081,42.4731118 61.3403442,21.4596351 66,21.4814815 C70.6596558,21.5033279 76.8647919,42.4731118 82.3058824,44.8148148 C87.7295838,49.8818301 102.86323,55.1420807 117.635294,39.6296296 C132.352294,26.5612661 131.186763,15.4042795 131.223529,11.1111111 C131.184775,6.4494855 124.014477,-0.283199952 101.329412,0.740740741 C78.6294355,2.0266011 77.0374414,11.1111111 66,11.1111111 Z" id="It!" fill="#F4F4F4" fill-rule="nonzero"></path><path d="M55.1294118,21.4814815 C55.5103632,13.8233491 42.2156493,5.64243259 27.9529412,5.92592593 C13.6973442,6.22450879 11.8417942,15.3786982 11.6470588,18.8888889 C11.2982286,27.0220633 20.014463,45.3037598 36.1058824,44.8148148 C52.1972736,44.305848 54.9092435,26.5344305 55.1294118,21.4814815 Z" id="Did" fill="#2F383B" fill-rule="nonzero"></path><path d="M120.352941,21.4814815 C120.733893,13.8233491 107.439179,5.64243259 93.1764706,5.92592593 C78.9208736,6.22450879 77.0653236,15.3786982 76.8705882,18.8888889 C76.521758,27.0220633 85.2379924,45.3037598 101.329412,44.8148148 C117.420803,44.305848 120.132773,26.5344305 120.352941,21.4814815 Z" id="Courtney" fill="#2F383B" fill-rule="nonzero" transform="translate(98.611765, 25.370370) scale(-1, 1) translate(-98.611765, -25.370370) "></path></g></g></g></g></g></g></g></g></svg>