<svg width="450px" height="480px" viewBox="0 0 264 280" version="1.1" xmlns="http://www.w3.org/2000/svg" xmlns:xlink="http://www.w3.org/1999/xlink"><desc>Avatar Creator</desc><defs><circle id="path-1" cx="120" cy="120" r="120"></circle><path d="M12,160 C12,226.27417 65.72583,280 132,280 C198.27417,280 252,226.27417 252,160 L264,160 L264,-1.42108547e-14 L-3.19744231e-14,-1.42108547e-14 L-3.19744231e-14,160 L12,160 Z" id="path-3"></path><path d="M124,144.610951 L124,163 L128,163 L128,163 C167.764502,163 200,195.235498 200,235 L200,244 L0,244 L0,235 C-4.86974701e-15,195.235498 32.235498,163 72,163 L72,163 L76,163 L76,144.610951 C58.7626345,136.422372 46.3722246,119.687011 44.3051388,99.8812385 C38.4803105,99.0577866 34,94.0521096 34,88 L34,74 C34,68.0540074 38.3245733,63.1180731 44,62.1659169 L44,56 L44,56 C44,25.072054 69.072054,5.68137151e-15 100,0 L100,0 L100,0 C130.927946,-5.68137151e-15 156,25.072054 156,56 L156,62.1659169 C161.675427,63.1180731 166,68.0540074 166,74 L166,88 C166,94.0521096 161.51969,99.0577866 155.694861,99.8812385 C153.627775,119.687011 141.237365,136.422372 124,144.610951 Z" id="path-5"></path></defs><g id="avatarmaker" stroke="none" stroke-width="1" fill="none" fill-rule="evenodd"><g transform="translate(-825.000000, -1100.000000)" id="avatarmaker/Circle"><g transform="translate(825.000000, 1100.000000)"><g id="Mask"></g><g id="avatarmaker" stroke-width="1" fill-rule="evenodd" mask="url(#mask-4)"><g id="Body" transform="translate(32.000000, 36.000000)"><mask id="mask-6" fill="white"><use xlink:href="#path-5"></use></mask><use fill="#D0C6AC" xlink:href="#path-5"></use><g id="Skin/ðŸ‘¶ðŸ½-03-Brown" mask="url(#mask-6)" fill="#F8D25C"><g transform="translate(-32.000000, 0.000000)" id="Color"><rect x="0" y="0" width="264" height="244"></rect></g></g><path d="M156,79 L156,102 C156,132.927946 130.927946,158 100,158 C69.072054,158 44,132.927946 44,102 L44,79 L44,94 C44,124.927946 69.072054,150 100,150 C130.927946,150 156,124.927946 156,94 L156,79 Z" id="Neck-Shadow" fill-opacity="0.100000001" fill="#000000" mask="url(#mask-6)"></path></g><g id="Clothing/Graphic-Shirt" transform="translate(0.000000, 170.000000)"><defs><path d="M165.624032,29.2681342 C202.760022,32.1373245 232,63.1798426 232,101.051724 L232,110 L32,110 L32,101.051724 C32,62.8348009 61.7752018,31.5722494 99.3929298,29.1967444 C99.1342224,30.2735458 99,31.3767131 99,32.5 C99,44.3741221 113.998461,54 132.5,54 C151.001539,54 166,44.3741221 166,32.5 C166,31.4015235 165.871641,30.3222877 165.624025,29.2681336 Z" id="react-path-290"></path></defs><mask id="react-mask-291" fill="white"><use xlink:href="#react-path-290"></use></mask><use id="Clothes" fill="#E6E6E6" fill-rule="evenodd" xlink:href="#react-path-290"></use><g id="Color/Palette/Gray-01" mask="url(#react-mask-291)" fill-rule="evenodd" fill="#ff5c5c"><rect id="ðŸ–Color" x="0" y="0" width="264" height="110"></rect></g><g id="Clothing/Graphic/Skull-Outline" mask="url(#react-mask-291)" stroke-width="1" fill-rule="evenodd"><g transform="translate(77.000000, 58.000000)" id="Skull"><g transform="translate(36.000000, 1.000000)"><path d="M36.3353853,17.0393673 C36.1551375,18.0777567 35.8927571,19.1087846 35.3466862,20.0285256 C34.6274709,21.2401241 33.3213404,21.7355025 32.5643885,22.8466397 C31.3705799,24.5990841 32.9555173,27.1231756 31.7781352,28.6842237 C30.5119611,30.3630542 27.6359878,29.346749 26.5163205,31.5755188 C25.3358307,33.925968 27.0535122,37.0679834 25.5729054,39.4058749 C24.1038415,39.0369393 23.6514462,33.5197923 21.3841422,37.0389708 C19.9319488,39.2928559 20.9126566,40.513981 18.7354764,37.2741024 C17.9789685,36.1486754 17.1247893,35.1384326 15.6392989,35.8810671 C14.5955488,36.4024269 14.3806721,38.7178013 13.4297097,38.9672226 C11.0962556,39.5786511 11.0105713,33.3500473 10.2172146,32.1709255 C9.78124586,31.523123 9.3750224,31.1394645 8.59986813,30.8939404 C7.92815655,30.6808931 6.73124021,31.1087199 6.17495825,30.7934791 C5.13032022,30.2019696 4.98914092,28.23821 4.94962847,27.1963565 C4.8759311,25.2572791 5.52544468,23.2770647 4.98958488,21.3579064 C4.53896541,19.7461945 3.1027546,18.7545717 2.63348882,17.1753366 C0.0993647654,8.64045187 11.6836147,3.89495204 18.2986197,3.63037495 C26.0390634,3.32033043 37.3356273,7.85191686 36.3353853,17.0393673 M38.172936,11.7240091 C36.716747,8.28277481 33.5180147,5.54736808 30.2580159,3.71135026 C28.6748543,2.82018878 26.955841,2.16285976 25.1728973,1.77140691 C23.531577,1.41069869 21.6150014,1.64842836 20.0482663,1.19462018 C18.728373,0.811827785 17.9097107,-0.0477230086 16.3562944,0.00207464445 C14.238161,0.0696262433 12.0370069,1.17426809 10.1879133,2.08751375 C6.5279065,3.89538507 3.41663437,6.23630778 1.4618782,9.83126531 C-0.636277062,13.6895009 -0.437382953,17.1865952 1.81083082,20.7832848 C3.95648981,24.2167247 0.837226393,29.045365 3.97824385,32.3086268 C5.29902504,33.6808769 6.59938407,32.6801606 7.84957562,33.3409538 C8.81163708,33.8493229 8.77123671,36.8034063 9.03805671,37.6694524 C10.2385247,41.5623298 14.5524847,43.0692501 16.5436456,38.8602659 C17.4830651,41.2128802 21.1990108,43.6239527 22.9291232,40.5460247 C24.0106099,41.9455552 25.8832335,42.541395 27.3123409,41.3414881 C28.6557641,40.2130299 28.8040467,37.585879 28.8724166,35.9984164 C28.9261357,34.7604034 28.3747373,33.2339971 29.3261438,32.3402375 C30.3734455,31.3559761 32.5204364,31.7708122 33.6951548,30.5011885 C35.0359141,29.0518603 34.4849597,27.3552759 34.5879584,25.6288129 C34.6922891,23.8828639 35.0035051,24.3280116 36.2980926,23.0670485 C39.1833891,20.2567287 39.6717451,15.2600755 38.172936,11.7240091" id="Boo!" fill="#FFFFFF"></path><path d="M14.4199416,28.1214878 C16.4409104,26.2992475 16.0109503,20.7236412 15.8441352,18.1620823 C15.5281264,13.3012213 12.4886458,14.7535905 10.6384079,17.7811955 C9.23849255,20.072024 5.8716471,23.7758196 7.38120621,26.6576793 C8.58337131,28.9535919 12.5610889,29.793746 14.4199416,28.1214878" id="Boo!" fill="#FFFFFF"></path><path d="M27.7905585,19.2735023 C26.7563456,17.3532744 26.3690889,17.0619469 25.1393718,15.4887787 C24.3486011,14.4775769 23.2406052,12.6869687 21.7361817,13.0471169 C19.1541926,13.6660822 20.2075808,19.6585611 20.238428,21.4487472 C20.2617717,22.8065864 19.9608037,24.2138247 21.0892255,25.1768941 C22.2443259,26.1627631 24.1422588,26.073676 25.5295464,25.8676357 C29.7877025,25.2338929 29.5913646,22.6136348 27.7905585,19.2735023" id="Boo!" fill="#FFFFFF"></path><path d="M19.2396436,31.8300192 C18.9563137,31.7944779 19.3174042,31.4678578 19.3591799,31.2433628 C19.5473771,31.8574625 19.6855263,31.8862554 19.2396436,31.8300192 M20.2848621,27.5191742 C17.6678865,24.7492021 12.711061,33.9166085 16.2049116,34.9450569 C17.0098167,35.1821488 17.604189,34.5815458 18.3598733,34.4767215 C19.4596896,34.3242088 20.3837174,34.9635023 21.3333895,33.9548492 C22.8244907,32.3712368 21.5203459,28.8566969 20.2848621,27.5191742" id="Boo!" fill="#FFFFFF"></path></g></g></g></g><g id="Face" transform="translate(76.000000, 82.000000)" fill="#000000"><g id="Mouth/Sad" transform="translate(2.000000, 52.000000)" fill-opacity="0.699999988" fill="#000000"><path d="M40.0582943,16.6539438 C40.7076459,23.6831146 46.7016363,28.3768187 54,28.3768187 C61.3416045,28.3768187 67.3633339,23.627332 67.9526838,16.5287605 C67.9840218,16.1513016 67.0772329,15.8529531 66.6289111,16.077395 C61.0902255,18.8502083 56.8805885,20.2366149 54,20.2366149 C51.1558456,20.2366149 47.0072148,18.8804569 41.5541074,16.168141 C41.0473376,15.9160792 40.0197139,16.2363147 40.0582943,16.6539438 Z" id="Mouth" transform="translate(54.005357, 22.188409) scale(1, -1) translate(-54.005357, -22.188409) "></path></g><g id="Nose/Default" transform="translate(28.000000, 40.000000)" fill-opacity="0.16"><path d="M16,8 C16,12.418278 21.372583,16 28,16 L28,16 C34.627417,16 40,12.418278 40,8" id="Nose"></path></g><g id="Eyes/Hearts-ðŸ˜" transform="translate(0.000000, 8.000000)" fill-opacity="0.8" fill-rule="nonzero" fill="#FF5353"><path d="M35.9583333,10 C33.4074091,10 30.8837273,11.9797894 29.5,13.8206358 C28.1106364,11.9797894 25.5925909,10 23.0416667,10 C17.5523182,10 14,13.3341032 14,17.6412715 C14,23.3708668 18.4118636,26.771228 23.0416667,30.376724 C24.695,31.6133636 27.8223436,34.7777086 28.2083333,35.470905 C28.5943231,36.1641015 30.3143077,36.1885229 30.7916667,35.470905 C31.2690257,34.7532872 34.3021818,31.6133636 35.9583333,30.376724 C40.5853182,26.771228 45,23.3708668 45,17.6412715 C45,13.3341032 41.4476818,10 35.9583333,10 Z" id="Heart"></path><path d="M88.9583333,10 C86.4074091,10 83.8837273,11.9797894 82.5,13.8206358 C81.1106364,11.9797894 78.5925909,10 76.0416667,10 C70.5523182,10 67,13.3341032 67,17.6412715 C67,23.3708668 71.4118636,26.771228 76.0416667,30.376724 C77.695,31.6133636 80.8223436,34.7777086 81.2083333,35.470905 C81.5943231,36.1641015 83.3143077,36.1885229 83.7916667,35.470905 C84.2690257,34.7532872 87.3021818,31.6133636 88.9583333,30.376724 C93.5853182,26.771228 98,23.3708668 98,17.6412715 C98,13.3341032 94.4476818,10 88.9583333,10 Z" id="Heart"></path></g><g id="Eyebrow/Natural/Default-Natural" fill-opacity="0.599999964"><path d="M26.0390934,6.21012364 C20.2775554,6.98346216 11.2929313,12.0052479 12.04426,17.8178111 C12.0689481,18.0080543 12.3567302,18.0673468 12.4809077,17.9084937 C14.9674041,14.7203351 34.1927973,10.0365481 41.1942673,11.0147151 C41.8350523,11.1044465 42.2580662,10.4430343 41.8210501,10.0302067 C38.0765663,6.49485426 31.2003792,5.51224825 26.0390934,6.21012364" id="Eyebrow" transform="translate(27.000000, 12.000000) rotate(5.000000) translate(-27.000000, -12.000000) "></path><path d="M85.0390934,6.21012364 C79.2775554,6.98346216 70.2929313,12.0052479 71.04426,17.8178111 C71.0689481,18.0080543 71.3567302,18.0673468 71.4809077,17.9084937 C73.9674041,14.7203351 93.1927973,10.0365481 100.194267,11.0147151 C100.835052,11.1044465 101.258066,10.4430343 100.82105,10.0302067 C97.0765663,6.49485426 90.2003792,5.51224825 85.0390934,6.21012364" id="Eyebrow" transform="translate(86.000000, 12.000000) scale(-1, 1) rotate(5.000000) translate(-86.000000, -12.000000) "></path></g></g><g id="Top" stroke-width="1" fill-rule="evenodd"><defs><rect id="react-path-294" x="0" y="0" width="264" height="280"></rect><path d="M133.506381,81.3351151 C137.363649,83.3307002 140,87.3574737 140,92 L140,105 C140,111.018625 135.569129,116.002364 129.791419,116.867187 C128.048193,137.114792 115.530782,154.282984 98,162.610951 L98,162.610951 L98,181 L102,181 C119.490913,181 135.525121,187.236892 148,197.608051 L148,74 C148,53.5654643 139.717268,35.0654643 126.325902,21.6740982 C112.934536,8.28273213 94.4345357,-3.55271368e-15 74,0 C33.1309285,7.10542736e-15 -7.10542736e-15,33.1309285 0,74 L0,257.716445 C13.5691766,255.775526 24,244.105888 24,230 L24,184.423101 C30.9346808,182.200199 38.3271796,181 46,181 L50,181 L50,162.610951 C38.7726252,157.277407 29.6015372,148.317951 24,137.245847 L24,75.2659587 C33.1467898,72.2910056 42.777598,68.0170651 52.3415164,62.4953343 C67.7445474,53.6023901 80.4313947,42.9409152 89.0661426,32.3970356 C90.8310687,37.5951441 93.1752556,42.8009742 96.1104311,47.8848473 C104.877881,63.0705152 117.224186,74.2337047 130,79.9170491 L130,80.1659169 C130.400422,80.233095 130.794121,80.3201038 131.18005,80.4258987 C131.954509,80.7493055 132.730185,81.0524853 133.506381,81.3351151 Z" id="react-path-295"></path></defs><mask id="react-mask-292" fill="white"><use xlink:href="#react-path-294"></use></mask><g id="Mask"></g><g id="Top/Long-Hair/Straight" mask="url(#react-mask-292)"><g transform="translate(-1.000000, 0.000000)"><g id="Hair" stroke-width="1" fill="none" fill-rule="evenodd" transform="translate(59.000000, 18.000000)"><mask id="react-mask-293" fill="white"><use xlink:href="#react-path-295"></use></mask><use id="Mask-Hair" fill="#944F23" xlink:href="#react-path-295"></use><g id="Skin/ðŸ‘¶ðŸ½-03-Brown" mask="url(#react-mask-293)" fill="#f6f6f6"><g transform="translate(0.000000, 0.000000) " id="Color"><rect x="0" y="0" width="264" height="280"></rect></g></g></g><path d="M192.506381,99.3351151 C197.3745,101.107702 202.263079,102.071957 207,102.148232 L207,102.148232 L207,92 C207,71.5654643 198.717268,53.0654643 185.325902,39.6740982 C198.717268,53.0654643 207,71.5654643 207,92 L207,215.608051 C194.525121,205.236892 178.490913,199 161,199 L157,199 L157,180.610951 L157,180.610951 C174.530782,172.282984 187.048193,155.114792 188.791419,134.867187 C194.569129,134.002364 199,129.018625 199,123 L199,110 C199,105.357474 196.363649,101.3307 192.506381,99.3351151 Z M190.18005,98.4258987 C189.794121,98.3201038 189.400422,98.233095 189,98.1659169 L189,97.9170491 C189.392974,98.0918644 189.786355,98.2614951 190.18005,98.4258987 Z M83,155.245847 C88.6015372,166.317951 97.7726252,175.277407 109,180.610951 L109,199 L105,199 C97.3271796,199 89.9346808,200.200199 83,202.423101 L83,155.245847 Z" id="Shadow" fill-opacity="0.24" fill="#000000" fill-rule="evenodd"></path><g id="Facial-Hair/Beard-Medium" transform="translate(49.000000, 72.000000)"><defs><path d="M105.017591,94.1296214 C101.150441,99.7213834 98.257542,95.9467308 94.1374777,92.8762163 C91.6567227,91.0272796 87.9608129,88.7275108 84.5044337,88.8410391 C81.0477114,88.7275108 77.3518016,91.0272796 74.8710466,92.8762163 C70.7509822,95.9467308 67.8580835,99.7213834 63.9909333,94.1296214 C61.0884259,89.9323547 62.3028943,82.8739117 65.014944,78.9027173 C68.8738581,73.2512381 74.1088724,75.9847769 79.9622738,75.3400279 C81.5538829,75.1648137 83.1526985,74.7228407 84.5044337,74 C85.856169,74.7228407 87.4546414,75.1648137 89.0462504,75.3400279 C94.899995,75.9847769 100.134666,73.2512381 103.993923,78.9027173 C106.70563,82.8739117 107.920098,89.9323547 105.017591,94.1296214 M140.39109,26 C136.966521,40.0748212 135.393023,54.4337754 132.909944,68.6711471 C132.392536,71.6390145 131.826063,74.5963095 131.224594,77.5496398 C131.098329,78.1697764 130.973781,80.4725746 130.362704,80.7643064 C128.511632,81.6484223 124.739149,76.9466834 123.730409,75.8851496 C121.196893,73.219256 118.684993,70.5292442 115.599415,68.437233 C109.364783,64.2102603 102.065485,61.7108818 94.4700836,61.117837 C91.2922091,60.8693859 86.9951134,61.3025234 84.000116,63.1104016 C81.0051185,61.3025234 76.7080229,60.8693859 73.5298053,61.117837 C65.9344039,61.7108818 58.6351055,64.2102603 52.4004739,68.437233 C49.3148957,70.5292442 46.8033387,73.219256 44.2694796,75.8851496 C43.2607395,76.9466834 39.4882573,81.6484223 37.6371849,80.7643064 C37.0261079,80.4725746 36.9015594,78.1697764 36.7752954,77.5496398 C36.1738255,74.5963095 35.6073527,71.6390145 35.0899445,68.6711471 C32.6072086,54.4337754 31.0337113,40.0748212 27.6091415,26 C26.6127533,26 25.7385119,44.7478165 25.6273446,46.4945731 C25.174784,53.5889755 24.6463963,60.5254529 25.3216346,67.6261326 C26.485803,79.8749043 27.6993791,95.2339402 37.032627,104.58753 C45.4659003,113.039493 57.7103052,114.806417 68.2713185,120.141327 C69.631059,120.828202 71.4347824,121.676306 73.3798667,122.37111 C75.4289129,123.934171 79.4926946,125 84.1740722,125 C89.0846465,125 93.3155222,123.827456 95.2540874,122.137856 C96.9548781,121.49261 98.5180822,120.752874 99.7285704,120.141327 C110.288776,114.805245 122.533989,113.039493 130.967262,104.58753 C140.30051,95.2339402 141.514086,79.8749043 142.678597,67.6261326 C143.353493,60.5254529 142.825105,53.5889755 142.372887,46.4945731 C142.261377,44.7478165 141.387136,26 140.39109,26 Z" id="react-path-297"></path></defs><mask id="react-mask-296" fill="white"><use xlink:href="#react-path-297"></use></mask><use id="Beardness" fill="#4a312c" fill-rule="evenodd" xlink:href="#react-path-297"></use><g id="Color/Hair/Brown" mask="url(#react-mask-296)" fill="#2C1B18"><g transform="translate(-32.000000, 0.000000)" id="Color"><rect x="0" y="0" width="264" height="244"></rect></g></g></g><g id="Top/_Resources/Prescription-01" fill="none" transform="translate(62.000000, 85.000000)" stroke-width="1"><defs><filter x="-0.8%" y="-2.4%" width="101.5%" height="109.8%" filterUnits="objectBoundingBox" id="react-filter-298"><feOffset dx="0" dy="2" in="SourceAlpha" result="shadowOffsetOuter1"></feOffset><feColorMatrix values="0 0 0 0 0   0 0 0 0 0   0 0 0 0 0  0 0 0 0.2 0" type="matrix" in="shadowOffsetOuter1" result="shadowMatrixOuter1"></feColorMatrix><feMerge><feMergeNode in="shadowMatrixOuter1"></feMergeNode><feMergeNode in="SourceGraphic"></feMergeNode></feMerge></filter></defs><g id="Glasses" filter="url(#react-filter-298)" transform="translate(8.000000, 8.000000)" fill="#D6EAF2"><path d="M46.2491397,7.27516667 C48.6207695,7.2975 49.7419096,7.69183333 50.1459601,10.1651667 C50.5553446,12.6705 50.1572949,15.4871667 49.6852359,17.9548333 C48.9648125,21.7228333 47.7666627,25.4145 44.9776475,28.1685 C43.5084639,29.6188333 41.7165732,30.7748333 39.8106684,31.5641667 C38.7985419,31.9835 37.7297416,32.2861667 36.6612747,32.5158333 C36.3489024,32.5828333 33.6822357,32.9501667 35.3177735,32.7635 C31.5009631,33.1991667 27.3601122,33.1818333 24.1723805,30.7525 C20.6396056,28.0601667 18.2203032,23.7998333 17.1565036,19.5561667 C16.5340925,17.0731667 15.2262624,11.1345 17.6158944,9.14916667 C20.3532365,6.8745 46.2491397,7.27516667 46.2491397,7.27516667 L46.2491397,7.27516667 Z M22.2178029,0.4905 C16.7774562,0.677833333 13.1466691,1.63383333 10.4633337,7.06916667 C5.54571911,17.0301667 13.9627711,31.9688333 23.352278,36.0395 C34.3293166,40.7991667 46.5921826,35.5318333 52.3955746,26.0058333 C55.4689587,20.9621667 57.0224862,13.3231667 56.9224737,7.50383333 C56.7951245,0.0765 51.6071427,-0.1295 45.5090472,0.0338333333 L22.2178029,0.4905 Z" id="Frame-Stuff"></path><path d="M79.6805515,7.27256667 C77.3089217,7.29523333 76.1877816,7.68923333 75.7837311,10.1625667 C75.3743466,12.6679 75.7723963,15.4845667 76.244122,17.9522333 C76.9648787,21.7202333 78.1630285,25.4119 80.9520437,28.1659 C82.4212273,29.6162333 84.213118,30.7722333 86.1190228,31.5619 C87.1311493,31.9809 88.1999496,32.2835667 89.2684165,32.5132333 C89.5807888,32.5802333 92.2471221,32.9479 90.6119177,32.7609 C94.4287281,33.1965667 98.569579,33.1792333 101.757311,30.7499 C105.290086,28.0575667 107.709388,23.7975667 108.773188,19.5539 C109.395599,17.0705667 110.703095,11.1322333 108.313797,9.14656667 C105.576455,6.8719 79.6805515,7.27256667 79.6805515,7.27256667 L79.6805515,7.27256667 Z M103.711555,0.4879 C109.152235,0.675233333 112.783022,1.63156667 115.466357,7.06656667 C120.383639,17.0275667 111.96692,31.9662333 102.577413,36.0372333 C91.6003746,40.7965667 79.3375086,35.5292333 73.5337832,26.0035667 C70.4607325,20.9595667 68.907205,13.3205667 69.0068841,7.50123333 C69.1345667,0.0739 74.3225485,-0.1321 80.420644,0.0315666667 L103.711555,0.4879 Z" id="Frame-Stuff"></path><path d="M13.1969483,4.9267 C9.78501392,5.11836667 5.88606327,5.16436667 2.69005822,6.63936667 C-0.69461078,8.20136667 -1.2176675,11.7387 3.04920921,12.2260333 C4.97094906,12.4457 6.89488267,12.0827 8.78716336,11.7450333 C10.336903,11.4683667 12.4419791,11.5580333 13.9064752,10.9657 C16.6355213,9.86236667 16.4603333,4.74003333 13.1969483,4.9267" id="Frame-Stuff"></path><path d="M112.73467,4.9267 C116.146606,5.11836667 120.045559,5.16436667 123.241565,6.63936667 C126.626236,8.20136667 127.149293,11.7387 122.882414,12.2260333 C120.960673,12.4457 119.036739,12.0827 117.144457,11.7450333 C115.594717,11.4683667 113.489639,11.5580333 112.025143,10.9657 C109.295782,9.86236667 109.471283,4.74003333 112.73467,4.9267" id="Frame-Stuff"></path><path d="M73.1094302,7.01263333 C71.1631869,4.71263333 66.0912197,3.38463333 62.8914864,3.38463333 C59.6914198,3.38463333 54.7681378,4.71263333 52.8222279,7.01263333 C51.8407719,8.1723 51.8074344,9.72396667 53.5083137,10.4509667 C55.6262451,11.3566333 57.5174814,9.7143 59.2126933,8.8553 C61.3809643,7.75663333 64.7120473,7.8773 66.7189648,8.8553 C68.4271783,9.68796667 70.3050797,11.3566333 72.4233444,10.4509667 C74.1242237,9.72396667 74.0908862,8.1723 73.1094302,7.01263333" id="Frame-Stuff"></path></g></g></g></g></g></g></g></g></g></svg>